<?xml version="1.0" encoding="utf-8"?>
<!-- Generator: Adobe Illustrator 19.0.0, SVG Export Plug-In . SVG Version: 6.00 Build 0)  -->
<svg version="1.1" id="Layer_1" xmlns="http://www.w3.org/2000/svg" xmlns:xlink="http://www.w3.org/1999/xlink" x="0px" y="0px"
	 viewBox="-338 240 283 82" style="enable-background:new -338 240 283 82;" xml:space="preserve">
<style type="text/css">
	.st0{fill:#FFFFFF;}
	.st1{opacity:0.75;}
</style>
<path id="XMLID_3_" class="st0" d="M-335.6,248.4c0-2.2,1.6-4.1,3.8-4.4c3.7-0.5,8.2-0.8,12.9-0.8c9.1,0,15,1.6,19.3,5.1
	c3.7,2.7,5.9,6.9,5.9,12.4c0,6.8-4.5,12.8-11.9,15.5v0.2c6.7,1.7,14.5,7.2,14.5,17.7c0,6.1-2.4,10.7-6,14.1
	c-4.9,4.5-12.9,6.6-24.4,6.6c-6.1,0-10.8,7.1-13.8,7.2c-0.2,0-0.3-0.2-0.3-0.3V248.4z M-326.5,272.8c0,0.4,0.3,0.8,0.8,0.8h7.5
	c9.6,0,11.3-5,11.3-11.8c0-8.3-2.3-11.5-11.5-11.5c-2.9,0-5,0.2-6.5,0.4c-0.9,0.1-1.6,0.9-1.6,1.8V272.8z M-326.5,307
	c0,0.2,0.1,0.3,0.3,0.3c1.8,0.3,4.3,0.4,7.4,0.4c9.4,0,14.1-3.5,14.1-13.7c0-9.6-4.3-11.6-14.2-11.6h-6.1c-0.8,0-1.4,0.6-1.4,1.4
	L-326.5,307z"/>
<g id="XMLID_1_">
	<path id="XMLID_32_" class="st0" d="M-239.4,292.8c-0.5,0-1.3,0.5-2.3,1.5c-6.8,7.2-13.4,10.8-20,10.8c-2.9,0-5-0.8-6.5-2.3
		c-1.4-1.5-2.4-5.9-1.5-8.1c0.1-0.1,1.6-1.1,1.6-1.1c7.7-4.1,13.8-8.3,18.4-12.6c4.6-4.3,6.9-8.7,6.9-13.4c0-2.1-0.7-3.9-2.2-5.4
		c-1.4-1.5-3.3-2.2-5.6-2.2c-6.9,0-13.3,3.9-19.2,11.7c-5.5,7.4-8.4,15.1-8.8,23.3c-5.2,5.8-8.5,12.6-8.8,13.2
		c0.5-0.9,4.8-4.2,9.2-7.4c0.6,3.1,1.8,5.7,3.6,7.7c2.6,2.9,6.4,4.3,11.3,4.3c5.8,0,11.5-2.2,16.9-6.5c5.5-4.4,8.2-8.1,8.2-11.2
		C-238,293.6-238.5,292.8-239.4,292.8z M-262.2,273c3.5-4.1,6.6-6.1,9.4-6.1c1.6,0,2.5,0.9,2.5,2.7c0,4.6-6.4,12.2-19.3,19.8
		C-268.2,283.5-265.7,277.1-262.2,273z"/>
</g>
<g id="XMLID_10_">
	<g id="XMLID_100_" class="st1">
		<path id="XMLID_105_" class="st0" d="M-157.1,290.3c1.4-1.7,2.9-3.3,4.3-4.8c1.4-1.6,2.9-3,4.4-4.2c1.5-1.2,3.1-2.2,4.7-2.9
			c1.6-0.7,3.3-1.1,5-1.1c1,0,2,0.1,3,0.4c1.1,0.3,2.1,0.7,3.1,1.3s2,1.3,2.9,2.2c0.9,0.9,1.7,1.9,2.4,3.1c0.7,1.2,1.2,2.6,1.6,4.1
			c0.4,1.5,0.6,3.2,0.6,5.1c0,1.2-0.1,2.5-0.4,3.7c-0.3,1.3-0.7,2.5-1.2,3.7c-0.5,1.2-1.2,2.3-2,3.3s-1.6,2-2.6,2.7
			c-1,0.8-2.1,1.4-3.3,1.8c-1.2,0.4-2.5,0.7-3.8,0.7c-1.4,0-2.7-0.2-3.9-0.5s-2.3-0.8-3.4-1.3c-1.1-0.6-2.1-1.2-3-2
			c-0.9-0.8-1.8-1.6-2.7-2.5c-0.9-0.9-1.7-1.9-2.5-2.9s-1.5-2.1-2.3-3.1c-1.4,1.6-2.8,3.1-4.3,4.6s-3,2.8-4.5,3.9
			c-1.5,1.1-3.1,2-4.8,2.7s-3.4,1-5.2,1c-2,0-3.8-0.4-5.5-1.2c-1.7-0.8-3.2-1.9-4.5-3.3s-2.3-3.1-3-5s-1.1-4-1.1-6.2
			c0-1.5,0.1-2.9,0.4-4.3c0.3-1.4,0.7-2.7,1.3-3.9c0.6-1.2,1.2-2.4,2-3.4s1.7-1.9,2.7-2.7c1-0.7,2.2-1.3,3.4-1.7
			c1.2-0.4,2.6-0.6,4-0.6c2,0,3.8,0.4,5.5,1.1c1.7,0.7,3.2,1.7,4.7,2.9c1.4,1.2,2.8,2.6,4,4.2S-158.3,288.6-157.1,290.3z
			 M-159.2,292.7c-1-1.4-2-2.8-3-4.1c-1-1.3-2.1-2.4-3.3-3.4c-1.1-1-2.4-1.7-3.7-2.3s-2.7-0.9-4.3-0.9c-1.3,0-2.5,0.2-3.6,0.5
			c-1.1,0.4-2.1,0.9-2.9,1.5c-0.9,0.6-1.6,1.4-2.3,2.2c-0.7,0.9-1.2,1.8-1.7,2.8c-0.4,1-0.8,2-1,3.1s-0.3,2.1-0.3,3.2
			c0,1.3,0.2,2.5,0.5,3.7s0.9,2.2,1.5,3.1c0.7,0.9,1.5,1.6,2.6,2.2c1,0.5,2.2,0.8,3.6,0.8c1.7,0,3.3-0.3,4.8-1
			c1.5-0.7,3.1-1.6,4.5-2.8c1.5-1.2,2.9-2.5,4.3-4C-161.9,295.8-160.5,294.3-159.2,292.7z M-153.9,294.8c1,1.4,1.9,2.7,2.9,3.9
			c1,1.2,2,2.3,3.1,3.2s2.2,1.7,3.4,2.2s2.4,0.8,3.8,0.8c1.4,0,2.6-0.2,3.8-0.6c1.1-0.4,2.2-0.9,3.1-1.5c0.9-0.6,1.7-1.4,2.4-2.3
			s1.2-1.8,1.7-2.8c0.4-1,0.8-2,1-3.1s0.3-2.2,0.3-3.2c0-1.3-0.2-2.5-0.5-3.7c-0.3-1.2-0.8-2.3-1.4-3.2c-0.6-0.9-1.4-1.7-2.4-2.2
			c-0.9-0.5-2-0.8-3.3-0.8c-1.1,0-2.1,0.2-3.1,0.5s-2,0.8-3,1.4s-2,1.3-2.9,2.2c-1,0.8-1.9,1.7-2.9,2.7s-1.9,2-2.9,3.1
			C-152,292.6-153,293.7-153.9,294.8z"/>
	</g>
	<g id="XMLID_84_">
		<g id="XMLID_90_">
			<path id="XMLID_91_" class="st0" d="M-159.1,287.3c1.4-1.7,2.9-3.3,4.3-4.8c1.4-1.6,2.9-3,4.4-4.2c1.5-1.2,3.1-2.2,4.7-2.9
				c1.6-0.7,3.3-1.1,5-1.1c1,0,2,0.1,3,0.4c1.1,0.3,2.1,0.7,3.1,1.3s2,1.3,2.9,2.2c0.9,0.9,1.7,1.9,2.4,3.1c0.7,1.2,1.2,2.6,1.6,4.1
				c0.4,1.5,0.6,3.2,0.6,5.1c0,1.2-0.1,2.5-0.4,3.7c-0.3,1.3-0.7,2.5-1.2,3.7c-0.5,1.2-1.2,2.3-2,3.3s-1.6,2-2.6,2.7
				c-1,0.8-2.1,1.4-3.3,1.8c-1.2,0.4-2.5,0.7-3.8,0.7c-1.4,0-2.7-0.2-3.9-0.5s-2.3-0.8-3.4-1.3c-1.1-0.6-2.1-1.2-3-2
				c-0.9-0.8-1.8-1.6-2.7-2.5c-0.9-0.9-1.7-1.9-2.5-2.9s-1.5-2.1-2.3-3.1c-1.4,1.6-2.8,3.1-4.3,4.6s-3,2.8-4.5,3.9
				c-1.5,1.1-3.1,2-4.8,2.7s-3.4,1-5.2,1c-2,0-3.8-0.4-5.5-1.2c-1.7-0.8-3.2-1.9-4.5-3.3s-2.3-3.1-3-5s-1.1-4-1.1-6.2
				c0-1.5,0.1-2.9,0.4-4.3c0.3-1.4,0.7-2.7,1.3-3.9c0.6-1.2,1.2-2.4,2-3.4s1.7-1.9,2.7-2.7c1-0.7,2.2-1.3,3.4-1.7
				c1.2-0.4,2.6-0.6,4-0.6c2,0,3.8,0.4,5.5,1.1c1.7,0.7,3.2,1.7,4.7,2.9c1.4,1.2,2.8,2.6,4,4.2S-160.3,285.6-159.1,287.3z
				 M-161.2,289.7c-1-1.4-2-2.8-3-4.1c-1-1.3-2.1-2.4-3.3-3.4c-1.1-1-2.4-1.7-3.7-2.3s-2.7-0.9-4.3-0.9c-1.3,0-2.5,0.2-3.6,0.5
				c-1.1,0.4-2.1,0.9-2.9,1.5c-0.9,0.6-1.6,1.4-2.3,2.2c-0.7,0.9-1.2,1.8-1.7,2.8c-0.4,1-0.8,2-1,3.1s-0.3,2.1-0.3,3.2
				c0,1.3,0.2,2.5,0.5,3.7s0.9,2.2,1.5,3.1c0.7,0.9,1.5,1.6,2.6,2.2c1,0.5,2.2,0.8,3.6,0.8c1.7,0,3.3-0.3,4.8-1
				c1.5-0.7,3.1-1.6,4.5-2.8c1.5-1.2,2.9-2.5,4.3-4C-163.9,292.8-162.5,291.3-161.2,289.7z M-155.9,291.8c1,1.4,1.9,2.7,2.9,3.9
				c1,1.2,2,2.3,3.1,3.2s2.2,1.7,3.4,2.2s2.4,0.8,3.8,0.8c1.4,0,2.6-0.2,3.8-0.6c1.1-0.4,2.2-0.9,3.1-1.5c0.9-0.6,1.7-1.4,2.4-2.3
				s1.2-1.8,1.7-2.8c0.4-1,0.8-2,1-3.1s0.3-2.2,0.3-3.2c0-1.3-0.2-2.5-0.5-3.7c-0.3-1.2-0.8-2.3-1.4-3.2c-0.6-0.9-1.4-1.7-2.4-2.2
				c-0.9-0.5-2-0.8-3.3-0.8c-1.1,0-2.1,0.2-3.1,0.5s-2,0.8-3,1.4s-2,1.3-2.9,2.2c-1,0.8-1.9,1.7-2.9,2.7s-1.9,2-2.9,3.1
				C-154,289.6-155,290.7-155.9,291.8z"/>
		</g>
	</g>
</g>
<g id="XMLID_7_">
	<path id="XMLID_16_" class="st0" d="M-72.6,308.4H-78l0,0v-18.7c0-1.4-0.1-2.8-0.2-4.1c-0.1-1.3-0.4-2.4-0.8-3.1
		c-0.4-0.8-1.1-1.5-1.9-1.9s-2.1-0.6-3.6-0.6s-3.1,0.4-4.6,1.2c-1.1,0.5-2.1,1.2-3.2,1.9c-0.9,0.6-1.4,1.6-1.3,2.6l0,0
		c0,0.6,0.1,1.2,0.1,1.8v20.9l0,0h-5.4l0,0v-18.7c0-1.4-0.1-2.8-0.2-4.1c-0.1-1.3-0.4-2.3-0.8-3.1c-0.4-0.8-1.1-1.5-1.9-1.9
		c-0.8-0.4-2.1-0.6-3.6-0.6s-3,0.4-4.5,1.1c-1.1,0.6-2.3,1.2-3.4,2c-0.7,0.5-1.1,1.3-1.1,2.2v23l0,0h-5.4l0,0v-35.1c0,0,0,0,0.1,0
		l5.4,6.1l0,0c1.7-1.4,3.4-2.5,5.1-3.3c1.7-0.8,3.5-1.2,5.5-1.2c2.2,0,4.1,0.5,5.7,1.4c1.5,0.9,2.7,2.2,3.5,3.9l0,0
		c2.2-1.9,4.2-3.2,6.1-4c1.8-0.8,3.8-1.2,5.9-1.2c3.6,0,6.2,1.1,8,3.3c1.7,2.2,2.6,5.2,2.6,9.1L-72.6,308.4L-72.6,308.4z"/>
</g>
<g id="XMLID_24_">
	<path id="XMLID_8_" class="st0" d="M-204.4,274.4c0-0.5-0.1-1.1-0.1-1.6c0-0.4-0.1-0.9-0.1-1.4s0-0.9,0-1.2v-19.4l7.2-1.8v62.5
		h-4.8l-2-3.5h-0.2c-0.8,0.5-1.5,1.1-2.4,1.5c-0.8,0.5-1.7,0.9-2.6,1.3c-0.9,0.4-1.8,0.7-2.8,0.9c-1,0.2-2.1,0.4-3.2,0.4
		c-2,0-4-0.3-5.8-1c-1.9-0.6-3.5-1.7-5-3.1c-1.4-1.4-2.6-3.3-3.5-5.6c-0.9-2.3-1.3-5.1-1.3-8.5c0-3.2,0.4-6,1.3-8.5
		c0.8-2.5,2.1-4.6,3.7-6.4c1.6-1.7,3.5-3.1,5.8-4c2.3-0.9,4.9-1.4,7.8-1.4c1.2,0,2.4,0.1,3.8,0.2
		C-207.1,274-205.7,274.2-204.4,274.4z M-223.1,293.5c0,2.5,0.2,4.5,0.7,6.3c0.5,1.7,1.2,3.2,2.1,4.3s2,1.9,3.2,2.4
		c1.3,0.5,2.6,0.8,4.2,0.8c1.5,0,3-0.2,4.4-0.5c1.4-0.3,2.7-0.7,3.8-1.2v-27.4c-1.2-0.2-2.3-0.3-3.3-0.4c-1.1-0.1-2.2-0.1-3.4-0.1
		c-1.7,0-3.3,0.1-4.8,0.4c-1.5,0.3-2.6,0.8-3.4,1.4c-0.4,0.4-0.8,0.9-1.2,1.6c-0.4,0.7-0.8,1.6-1.2,2.8c-0.4,1.1-0.6,2.5-0.9,4.1
		C-222.9,289.6-223.1,291.4-223.1,293.5z"/>
</g>
</svg>
